[h264 @ 0x56013ae6e280] Reinit context to 1056x1920, pix_fmt: yuv420p
Input #0, mov,mp4,m4a,3gp,3g2,mj2, from '/var/www/html/project/media/video/original/lv_0_20220806211939.mp4':
  Metadata:
    major_brand     : isom
    minor_version   : 512
    compatible_brands: isomiso2avc1mp41
    Hw              : 1
                    : 
    LvMetaInfo      : {"data":{"appVersion":"6.4.0","capabilityName":"","ccTtVid":"","draftInfo":{"adjust":0,"aiMatting":0,"audioToText":0,"chroma":0,"coverTemplateId":"","curveSpeed":0,"faceEffectId":"","filterId":"","gameplayAlgorithm":"","graphs":0,"keyframe":0,"mask":0,"mi
    bitRate         : 15000000
                    : 
    copyright       : f9ea9b88c927b7c741987c03a5f80afd
    maxrate         : 30000000
                    : 
    te_is_reencode  : 1
                    : 
    encoder         : bytevehwavc
  Duration: 00:00:40.33, start: 0.000000, bitrate: 16439 kb/s
    Stream #0:0(und): Video: h264 (Baseline), 1 reference frame (avc1 / 0x31637661), yuv420p(tv, bt709, left), 1056x1920, 16319 kb/s, 30 fps, 30 tbr, 1000k tbn, 2000k tbc (default)
    Metadata:
      handler_name    : VideoHandler
    Stream #0:1(und): Audio: aac (LC) (mp4a / 0x6134706D), 44100 Hz, stereo, fltp, 128 kb/s (default)
    Metadata:
      handler_name    : SoundHandler
Input #1, png_pipe, from '/var/www/html/project/static/images/templates/logo_vertical.png':
  Duration: N/A, bitrate: N/A
    Stream #1:0: Video: png, 1 reference frame, rgba(pc), 1920x1080 [SAR 2835:2835 DAR 16:9], 25 tbr, 25 tbn, 25 tbc
[h264 @ 0x56013aecf740] Reinit context to 1280x720, pix_fmt: yuv420p
Input #2, mov,mp4,m4a,3gp,3g2,mj2, from '/var/www/html/project/static/images/templates/Codino.mp4':
  Metadata:
    major_brand     : mp42
    minor_version   : 1
    compatible_brands: isommp41mp42
    creation_time   : 2021-07-11T07:02:58.000000Z
  Duration: 00:00:02.00, start: 0.000000, bitrate: 1007 kb/s
    Stream #2:0(ita): Audio: aac (LC) (mp4a / 0x6134706D), 44100 Hz, stereo, fltp, 102 kb/s (default)
    Metadata:
      creation_time   : 2021-07-11T07:02:58.000000Z
      handler_name    : Core Media Audio
    Stream #2:1(und): Video: h264 (High), 1 reference frame (avc1 / 0x31637661), yuv420p(tv, bt709, progressive, left), 1280x720 [SAR 1:1 DAR 16:9], 813 kb/s, 25 fps, 25 tbr, 25k tbn, 50k tbc (default)
    Metadata:
      creation_time   : 2021-07-11T07:02:58.000000Z
      handler_name    : Core Media Video
[Parsed_scale_1 @ 0x56013af7e940] w:1280 h:720 flags:'bilinear' interl:0
[Parsed_scale_4 @ 0x56013af81880] w:-1 h:720 flags:'bilinear' interl:0
[Parsed_scale_7 @ 0x56013aec3ac0] w:1280 h:720 flags:'bilinear' interl:0
[Parsed_scale_9 @ 0x56013af23100] w:1280 h:720 flags:'bilinear' interl:0
Stream mapping:
  Stream #0:0 (h264) -> split
  Stream #0:1 (aac) -> concat:in0:a0
  Stream #1:0 (png) -> scale
  Stream #2:0 (aac) -> concat:in1:a0
  Stream #2:1 (h264) -> scale
  concat:out:v0 -> Stream #0:0 (libx264)
  concat:out:a0 -> Stream #0:1 (aac)
Press [q] to stop, [?] for help
[h264 @ 0x56013af28400] Reinit context to 1056x1920, pix_fmt: yuv420p
[h264 @ 0x56013b313740] Reinit context to 1280x720, pix_fmt: yuv420p
[Parsed_scale_1 @ 0x56013c81f9c0] w:1280 h:720 flags:'bilinear' interl:0
[Parsed_scale_4 @ 0x56013c82a800] w:-1 h:720 flags:'bilinear' interl:0
[Parsed_scale_7 @ 0x56013c82ce80] w:1280 h:720 flags:'bilinear' interl:0
[Parsed_scale_9 @ 0x56013c82e540] w:1280 h:720 flags:'bilinear' interl:0
[graph 0 input from stream 0:0 @ 0x56013c832d40] w:1056 h:1920 pixfmt:yuv420p tb:1/1000000 fr:30/1 sar:0/1 sws_param:flags=2
[graph 0 input from stream 1:0 @ 0x56013c833dc0] w:1920 h:1080 pixfmt:rgba tb:1/25 fr:25/1 sar:2835/2835 sws_param:flags=2
[graph 0 input from stream 2:1 @ 0x56013c834e40] w:1280 h:720 pixfmt:yuv420p tb:1/25000 fr:25/1 sar:1/1 sws_param:flags=2
[graph_0_in_0_1 @ 0x56013c82de40] tb:1/44100 samplefmt:fltp samplerate:44100 chlayout:0x3
[graph_0_in_2_0 @ 0x56013c829a40] tb:1/44100 samplefmt:fltp samplerate:44100 chlayout:0x3
[Parsed_scale_1 @ 0x56013c81f9c0] w:1056 h:1920 fmt:yuv420p sar:0/1 -> w:1280 h:720 fmt:yuv420p sar:0/1 flags:0x2
[Parsed_boxblur_2 @ 0x56013c828580] luma_radius:36 luma_power:1 chroma_radius:18 chroma_power:1 alpha_radius:36 alpha_power:1 w:1280 chroma_w:640 h:720 chroma_h:360
[Parsed_setsar_3 @ 0x56013c828840] w:1280 h:720 sar:0/1 dar:16/9 -> sar:1/1 dar:16/9
[Parsed_scale_4 @ 0x56013c82a800] w:1056 h:1920 fmt:yuv420p sar:0/1 -> w:396 h:720 fmt:yuva420p sar:0/1 flags:0x2
[Parsed_setsar_5 @ 0x56013c82a640] w:396 h:720 sar:0/1 dar:11/20 -> sar:1/1 dar:11/20
[Parsed_overlay_6 @ 0x56013c82ba80] main w:1280 h:720 fmt:yuv420p overlay w:396 h:720 fmt:yuva420p
[Parsed_overlay_6 @ 0x56013c82ba80] [framesync @ 0x56013c82c0a8] Selected 1/1000000 time base
[Parsed_overlay_6 @ 0x56013c82ba80] [framesync @ 0x56013c82c0a8] Sync level 2
[Parsed_scale_7 @ 0x56013c82ce80] w:1920 h:1080 fmt:rgba sar:2835/2835 -> w:1280 h:720 fmt:yuva420p sar:1/1 flags:0x2
[Parsed_setsar_8 @ 0x56013c82d940] w:1280 h:720 sar:1/1 dar:16/9 -> sar:1/1 dar:16/9
[Parsed_overlay_11 @ 0x56013c82fd40] main w:1280 h:720 fmt:yuv420p overlay w:1280 h:720 fmt:yuva420p
[Parsed_overlay_11 @ 0x56013c82fd40] [framesync @ 0x56013c82fe68] Selected 1/1000000 time base
[Parsed_overlay_11 @ 0x56013c82fd40] [framesync @ 0x56013c82fe68] Sync level 2
[Parsed_scale_9 @ 0x56013c82e540] w:1280 h:720 fmt:yuv420p sar:1/1 -> w:1280 h:720 fmt:yuv420p sar:1/1 flags:0x2
[Parsed_setsar_10 @ 0x56013c82f040] w:1280 h:720 sar:1/1 dar:16/9 -> sar:1/1 dar:16/9
[libx264 @ 0x56013ae866c0] using SAR=1/1
[libx264 @ 0x56013ae866c0] using cpu capabilities: MMX2 SSE2Fast SSSE3 SSE4.2 AVX FMA3 BMI2 AVX2
[libx264 @ 0x56013ae866c0] profile High, level 3.1
[libx264 @ 0x56013ae866c0] 264 - core 155 r2917 0a84d98 - H.264/MPEG-4 AVC codec - Copyleft 2003-2018 - http://www.videolan.org/x264.html - options: cabac=1 ref=1 deblock=1:0:0 analyse=0x3:0x113 me=hex subme=2 psy=1 psy_rd=1.00:0.00 mixed_ref=0 me_range=16 chroma_me=1 trellis=0 8x8dct=1 cqm=0 deadzone=21,11 fast_pskip=1 chroma_qp_offset=0 threads=22 lookahead_threads=5 sliced_threads=0 nr=0 decimate=1 interlaced=0 bluray_compat=0 constrained_intra=0 bframes=3 b_pyramid=2 b_adapt=1 b_bias=0 direct=1 weightb=1 open_gop=0 weightp=1 keyint=250 keyint_min=25 scenecut=40 intra_refresh=0 rc_lookahead=10 rc=crf mbtree=1 crf=18.0 qcomp=0.60 qpmin=0 qpmax=69 qpstep=4 ip_ratio=1.40 aq=1:1.00
Output #0, mp4, to '/var/www/html/project/media/video/watermarks/lv_0_20220806211939.mp4':
  Metadata:
    major_brand     : isom
    minor_version   : 512
    compatible_brands: isomiso2avc1mp41
    Hw              : 1
                    : 
    LvMetaInfo      : {"data":{"appVersion":"6.4.0","capabilityName":"","ccTtVid":"","draftInfo":{"adjust":0,"aiMatting":0,"audioToText":0,"chroma":0,"coverTemplateId":"","curveSpeed":0,"faceEffectId":"","filterId":"","gameplayAlgorithm":"","graphs":0,"keyframe":0,"mask":0,"mi
    bitRate         : 15000000
                    : 
    copyright       : f9ea9b88c927b7c741987c03a5f80afd
    maxrate         : 30000000
                    : 
    te_is_reencode  : 1
                    : 
    encoder         : Lavf58.29.100
    Stream #0:0: Video: h264 (libx264), 1 reference frame (avc1 / 0x31637661), yuv420p(progressive), 1280x720 [SAR 1:1 DAR 16:9], q=-1--1, 30 fps, 15360 tbn, 30 tbc (default)
    Metadata:
      encoder         : Lavc58.54.100 libx264
    Side data:
      cpb: bitrate max/min/avg: 0/0/0 buffer size: 0 vbv_delay: -1
    Stream #0:1: Audio: aac (LC) (mp4a / 0x6134706D), 44100 Hz, stereo, fltp, delay 1024, 128 kb/s (default)
    Metadata:
      encoder         : Lavc58.54.100 aac
[Parsed_overlay_6 @ 0x56013c82ba80] [framesync @ 0x56013c82c0a8] Sync level 1
[Parsed_overlay_6 @ 0x56013c82ba80] [framesync @ 0x56013c82c0a8] Sync level 0
[Parsed_overlay_11 @ 0x56013c82fd40] [framesync @ 0x56013c82fe68] Sync level 0
[Parsed_concat_12 @ 0x56013c830dc0] EOF on in0:v0, 1 streams left in segment.
[Parsed_concat_12 @ 0x56013c830dc0] EOF on in0:a0, 0 streams left in segment.
[Parsed_concat_12 @ 0x56013c830dc0] Segment finished at pts=40300000
[Parsed_concat_12 @ 0x56013c830dc0] EOF on in1:a0, 1 streams left in segment.
[Parsed_concat_12 @ 0x56013c830dc0] EOF on in1:v0, 0 streams left in segment.
[Parsed_concat_12 @ 0x56013c830dc0] Segment finished at pts=42318685
No more output streams to write to, finishing.
frame= 1259 fps= 55 q=-1.0 Lsize=   14983kB time=00:00:42.32 bitrate=2899.6kbits/s speed=1.84x    
[AVIOContext @ 0x56013ae6c500] Statistics: 0 seeks, 46 writeouts
video:14272kB audio:665kB subtitle:0kB other streams:0kB global headers:0kB muxing overhead: 0.305946%
Input file #0 (/var/www/html/project/media/video/original/lv_0_20220806211939.mp4):
  Input stream #0:0 (video): 1209 packets read (82207546 bytes); 1209 frames decoded; 
  Input stream #0:1 (audio): 1737 packets read (645700 bytes); 1735 frames decoded (1776640 samples); 
  Total: 2946 packets (82853246 bytes) demuxed
Input file #1 (/var/www/html/project/static/images/templates/logo_vertical.png):
  Input stream #1:0 (video): 1 packets read (93903 bytes); 1 frames decoded; 
  Total: 1 packets (93903 bytes) demuxed
Input file #2 (/var/www/html/project/static/images/templates/Codino.mp4):
  Input stream #2:0 (audio): 89 packets read (26579 bytes); 87 frames decoded (89024 samples); 
  Input stream #2:1 (video): 50 packets read (203365 bytes); 50 frames decoded; 
  Total: 139 packets (229944 bytes) demuxed
Output file #0 (/var/www/html/project/media/video/watermarks/lv_0_20220806211939.mp4):
  Output stream #0:0 (video): 1259 frames encoded; 1259 packets muxed (14614708 bytes); 
  Output stream #0:1 (audio): 1823 frames encoded (1866254 samples); 1824 packets muxed (681117 bytes); 
  Total: 3083 packets (15295825 bytes) muxed
[AVIOContext @ 0x56013ae86c00] Statistics: 2 seeks, 62 writeouts
[libx264 @ 0x56013ae866c0] frame I:7     Avg QP:13.78  size: 47585
[libx264 @ 0x56013ae866c0] frame P:395   Avg QP:18.00  size: 22389
[libx264 @ 0x56013ae866c0] frame B:857   Avg QP:19.54  size:  6345
[libx264 @ 0x56013ae866c0] consecutive B-frames:  5.1% 10.3%  6.4% 78.2%
[libx264 @ 0x56013ae866c0] mb I  I16..4: 36.7% 34.4% 28.9%
[libx264 @ 0x56013ae866c0] mb P  I16..4: 16.5% 20.8%  2.9%  P16..4: 22.4% 13.0%  7.8%  0.0%  0.0%    skip:16.8%
[libx264 @ 0x56013ae866c0] mb B  I16..4:  3.4%  2.3%  0.1%  B16..8: 21.5%  7.4%  0.8%  direct:11.1%  skip:53.3%  L0:39.4% L1:45.8% BI:14.7%
[libx264 @ 0x56013ae866c0] 8x8 transform intra:48.5% inter:34.6%
[libx264 @ 0x56013ae866c0] coded y,uvDC,uvAC intra: 30.6% 49.6% 7.1% inter: 10.4% 22.4% 0.5%
[libx264 @ 0x56013ae866c0] i16 v,h,dc,p: 18% 40%  9% 33%
[libx264 @ 0x56013ae866c0] i8 v,h,dc,ddl,ddr,vr,hd,vl,hu: 13% 48% 15%  3%  5%  3%  7%  2%  4%
[libx264 @ 0x56013ae866c0] i4 v,h,dc,ddl,ddr,vr,hd,vl,hu: 23% 25% 15%  5%  8%  6%  7%  5%  6%
[libx264 @ 0x56013ae866c0] i8c dc,h,v,p: 43% 32% 12% 12%
[libx264 @ 0x56013ae866c0] Weighted P-Frames: Y:13.9% UV:4.3%
[libx264 @ 0x56013ae866c0] kb/s:2763.88
[aac @ 0x56013af7d7c0] Qavg: 1958.966
[AVIOContext @ 0x56013ae754c0] Statistics: 111621464 bytes read, 1754 seeks
[AVIOContext @ 0x56013ae82540] Statistics: 93903 bytes read, 0 seeks
[AVIOContext @ 0x56013ae7dc00] Statistics: 1530915 bytes read, 42 seeks
